<svg xmlns="http://www.w3.org/2000/svg" viewBox="0 0 100 100">
  <defs>
    <linearGradient id="grad" x1="0%" y1="0%" x2="100%" y2="100%">
      <stop offset="0%" style="stop-color:#3b82f6;stop-opacity:1" />
      <stop offset="100%" style="stop-color:#8b5cf6;stop-opacity:1" />
    </linearGradient>
  </defs>
  <!-- Background circle -->
  <circle cx="50" cy="50" r="48" fill="url(#grad)"/>
  <!-- Building icon -->
  <path d="M30 70 L30 40 L40 40 L40 30 L60 30 L60 40 L70 40 L70 70 Z" fill="white" opacity="0.95"/>
  <!-- Windows -->
  <rect x="35" y="45" width="6" height="6" fill="#3b82f6" rx="1"/>
  <rect x="45" y="45" width="6" height="6" fill="#3b82f6" rx="1"/>
  <rect x="55" y="45" width="6" height="6" fill="#3b82f6" rx="1"/>
  <rect x="35" y="55" width="6" height="6" fill="#3b82f6" rx="1"/>
  <rect x="45" y="55" width="6" height="6" fill="#3b82f6" rx="1"/>
  <rect x="55" y="55" width="6" height="6" fill="#3b82f6" rx="1"/>
  <rect x="35" y="65" width="6" height="6" fill="#3b82f6" rx="1"/>
  <rect x="45" y="65" width="6" height="6" fill="#3b82f6" rx="1"/>
  <rect x="55" y="65" width="6" height="6" fill="#3b82f6" rx="1"/>
  <!-- Door -->
  <rect x="47" y="60" width="6" height="10" fill="#8b5cf6" rx="1"/>
  <!-- Key icon overlay -->
  <circle cx="52" cy="65" r="1.5" fill="white"/>
</svg>

