<?xml version="1.0" encoding="UTF-8"?>
<svg id="Layer_1" data-name="Layer 1" xmlns="http://www.w3.org/2000/svg" viewBox="0 0 827.69 546.82">
  <defs>
    <style>
      .cls-1 {
        fill: #2f4c58;
      }

      .cls-2 {
        fill: none;
      }

      .cls-3 {
        fill: #6ab3d2;
      }

      .cls-4 {
        fill: #2b3152;
      }
    </style>
  </defs>
  <path class="cls-2" d="M435.49,156.97c-.22-.12-.44-.25-.66-.37.22.12.44.25.66.37Z"/>
  <path class="cls-2" d="M433.44,155.82c-.25-.15-.5-.3-.75-.44.25.15.5.3.75.44Z"/>
  <path class="cls-2" d="M431.41,154.59c-.24-.15-.48-.3-.72-.46.24.15.48.31.72.46Z"/>
  <path class="cls-2" d="M427.25,151.85c-.14-.1-.29-.2-.43-.3.14.1.29.2.43.3Z"/>
  <path class="cls-2" d="M429.37,153.28c-.21-.14-.43-.28-.64-.42.21.14.43.28.64.42Z"/>
  <path class="cls-3" d="M456.02,61.46c4.33.04,8.66.05,12.99.08,6.26.04,6.3.08,6.3,6.53,0,41.65,0,83.29,0,124.94h-.05c0,42.15.05,84.29-.08,126.44-.01,4.15,1.23,5.43,5.38,5.36,12.99-.24,25.98-.09,38.97-.09,10.72,0,10.8,0,10.74-10.83-.11-20.98-.24-41.96-.41-62.94-.47-58.64-.27-117.28-.33-175.92-.01-14.05,0-14.01,13.96-14.23,2.42-.04,6.11,1.23,6.97-.77,1.16-2.66-2.17-4.8-3.86-6.94-9.4-11.9-18.83-23.78-28.34-35.58-4.45-5.52-8.59-11.3-13.73-16.28-1.89-1.83-2.99-1.52-4.41.23-2.7,3.36-5.42,6.7-8.16,10.03-12.57,15.25-25.16,30.5-37.74,45.75-.73.88-1.89,1.71-1.28,2.99.56,1.18,1.9,1.21,3.08,1.22Z"/>
  <path class="cls-3" d="M782.75,488.17c-.84-.5-1.69-1.13-2.61-1.33-12.47-2.76-24.88-5.93-37.46-8.08-44.4-7.57-89.14-12.59-134.03-15.96-28.18-2.12-56.45-3.18-84.7-3.97-22.47-.63-44.96-.13-67.44-.13-37.12-.14-74.22.23-111.32,1.58-29.09,1.05-58.1,2.97-87.11,5.16-27.83,2.1-55.55,5.31-83.27,8.57-43.23,5.09-85.94,12.98-128.3,22.79-9.53,2.21-18.94,5.47-27.35,11.34-7.11,4.96-13.18,10.51-17.73,17.82-.58.94-2.02,1.56-1.13,2.91,1.12,1.72,2.32.25,3.45-.14,1.09-.37,2.36-.6,3.17-1.32,6.52-5.75,14.9-7.43,22.78-9.53,16.32-4.36,33-7.37,49.4-11.46,29.72-7.41,60-11.56,90.21-16.22,32.72-5.05,65.63-8.04,98.59-10.58,25.52-1.97,51.07-3.73,76.64-4.88,30.91-1.39,61.85-2.43,92.79-2.89,40.62-.61,81.25-.89,121.86.6,20.11.74,40.24,1.22,60.33,2.31,24.22,1.31,48.43,2.96,72.61,4.81,15.4,1.18,30.76,2.85,46.11,4.56,14.53,1.61,28.95,3.99,43.3,6.81,1.14.22,2.51.73,2.99-.74.39-1.19-.97-1.53-1.77-2.01Z"/>
  <path class="cls-3" d="M525.63,482.68c-18.27-.72-36.55-1.78-54.83-1.89-24.29-.15-48.58-.68-72.87.74-15.59.91-31.22,1.27-46.83,2.12-33.85,1.86-67.61,4.77-101.36,7.92-37.41,3.49-74.57,8.6-111.44,15.87-29.41,5.8-58.59,12.4-86.37,23.97-6.7,2.79-13.66,5.37-18.73,11.05-.91,1.02-1.92,1.99-1.07,3.48.87,1.54,2.08.71,3,.16,5.18-3.09,10.84-4.8,16.6-6.42,36.81-10.4,74.08-18.68,111.71-25.53,35.48-6.46,71.16-11.53,106.98-15.46,30.98-3.4,62.09-5.62,93.16-8.16,15.23-1.24,30.49-2.42,45.77-2.93,30.92-1.04,61.79-3.27,92.75-3.17,10.32.03,20.63,0,30.95,0-.03-.21-.07-.42-.1-.63-2.44-.38-4.87-1.01-7.32-1.11Z"/>
  <path class="cls-3" d="M456.9,437.95c-1.67,6.23-1.3,6.33,5.22,6.99,3.89.4,7.06.23,8.13-4.83,4.26-20.17,8.83-40.27,13.25-60.4,1.24-5.68,2.37-11.38,3.51-17.08.29-1.48.48-3-1.26-3.9-2.85-1.47-10.39.06-12.36,2.63-2.32,3.04-4.56,6.14-6.81,9.23-10.26,14.12-20.51,28.23-30.74,42.37-.81,1.12-1.67,2.33-3.04,2.36-1.7.03-1.88-1.69-2.22-2.9-4.68-16.29-9.84-32.46-13.7-48.94-1.73-7.4-6.47-4.38-10.3-4.97-4.48-.69-5.06,2.8-5.7,5.94-1.81,8.78-3.4,17.6-5.35,26.34-3.68,16.55-7.55,33.07-11.34,49.6-.41,1.78-1.12,3.63,1.38,4.59,6.59,2.52,11.32-.36,12.69-7.36,3.44-17.58,7.07-35.13,10.71-53.14,2.75,1.37,2.57,3.59,3.06,5.4,3.49,13.01,6.9,26.04,10.42,39.04.62,2.3.78,5.29,4.25,5.28,3.22,0,6.53.74,8.88-2.89,3.7-5.71,7.85-11.13,11.85-16.65,5.65-7.8,11.36-15.57,17-23.38.83-1.16,1.15-3.4,2.95-2.74,2.35.87.68,2.87.26,4.25-4.46,14.83-6.73,30.19-10.73,45.13Z"/>
  <path class="cls-4" d="M407.4,114.36c.04.16.08.33.12.49v-.67c-.02.06-.06.12-.12.18Z"/>
  <path class="cls-3" d="M513.1,383.81c-12.57,7-18.54,18.63-21.33,32.15-3.15,15.24,4.29,27.61,17.7,29.3,9.18,1.15,16.94-2.26,23.37-8.8,1.13-1.15,1.9-2.78,4-2.36.8,1.9-.89,3.58-.46,5.34.41,1.71-2.41,5.06,1.6,4.87,3.29-.16,8.3,2.84,9.71-2.72,4.67-18.33,8.96-36.76,13.43-55.14.65-2.69-.34-4.17-2.95-4.69-4.88-.97-9.74-2.23-14.67-2.8-10.54-1.21-20.93-.42-30.4,4.86ZM545.38,398.09c-2.91,11.3-6.01,22.56-14.93,30.99-3.94,3.72-8.64,5.49-11.63,5.53-9.12-.03-12.6-2.7-13.54-9.54-2.18-15.88,6.43-31.07,21.2-34.2,4.6-.97,9.28-.78,13.89,0,6.37,1.06,6.56,1.19,5.01,7.23Z"/>
  <path class="cls-3" d="M674.74,425.29c1.02,7.8,4.05,14.98,12.51,18.26,13.17,5.1,25.03,1.96,36.44-5.12,3.49-2.17,4.07-4.21,1.48-7.92-2.42-3.47-4.07-4.23-7.28-1.23-1.53,1.43-3.63,2.35-5.58,3.25-6.08,2.8-12.34,2.73-18.4.17-3.7-1.56-5.61-5.09-5.26-8.88.32-3.49,3.94-2.2,6.18-2.53,12.5-1.83,24.33-5.34,34.64-12.98,8.74-6.47,9.43-16.93,1.62-24.48-4.85-4.69-11.03-4.85-15.53-5.17-25.72.17-43.75,24.26-40.82,46.62ZM689.68,408.86c3.07-11.25,12.61-18.58,24.19-18.42,1,0,1.99.02,2.99,0,2.99-.06,5.23,1.3,6.24,4.04,1.13,3.07-.35,5.48-2.77,7.35-3.87,2.99-8.32,4.77-12.97,6.11-4.78,1.38-9.55,2.78-14.33,4.11-2.82.79-4.22.06-3.33-3.19Z"/>
  <path class="cls-3" d="M569.5,442.88c.95.31,1.88.69,2.84.94,11.7,3.04,23.32,3.89,34.36-2.28,6.84-3.83,10.12-10.19,10.15-17.76.02-6.64-4.04-11.03-10.07-13.57-4.9-2.06-9.78-4.14-14.7-6.14-3.23-1.31-5.37-3.22-4.86-7.11.48-3.63,3.01-4.91,6.09-5.66,7.5-1.81,14.99-1.27,22.09,1.35,6.63,2.45,5.52-3.56,7.11-6.1,2.08-3.32-1.24-4.32-3.56-4.93-5.61-1.47-11.21-3.15-17.12-2.93-6.27-.22-12.3.94-17.78,3.95-7.02,3.86-10.5,10.09-10.34,18.04.14,7.08,4.19,11.73,10.5,14.4,4.58,1.94,9.34,3.46,13.96,5.29,2.85,1.13,4.48,3.21,4.52,6.49.04,3.36-1.75,5.22-4.61,6.37-2.02.81-4.09,1.31-6.3,1.38-7.06.22-13.91-.56-20.48-3.42-1.43-.62-3.09-2.27-4.91-.23-4.46,5.01-3.24,9.79,3.12,11.9Z"/>
  <path class="cls-3" d="M637.3,390.79c2.96.03,4.79,1.04,3.72,4.63-1.09,3.66-1.94,7.4-2.69,11.14-1.82,9.1-5.27,17.92-4.91,27.4.22,5.8,3.8,10.26,9.47,11.21,5.67.95,11.31.32,16.72-1.69,5.34-1.99,1.98-6.03,1.59-8.97-.45-3.41-2.99-1.23-4.64-.71-7.23,2.3-11.03-.99-9.44-8.38,1.71-7.96,3.36-15.95,5.44-23.82,3.26-12.31.22-10.05,13.1-10.33,1-.02,2,.02,3-.01,4.75-.14,6.39-2.2,6.12-8.09-.19-4.19-3.57-2.3-5.68-2.75-.8-.17-1.66-.03-2.49-.03v.04c-1.17,0-2.35-.13-3.5.02-4.8.62-5.89-1.39-4.48-5.75.91-2.83,1.15-5.88,2-8.73.95-3.2-.24-4.18-3.31-4.35-8.24-.45-8.32-.47-10.32,7.64-.28,1.13-.62,2.25-.8,3.4-.81,5.15-2.24,8.85-9.01,8.24-4.75-.43-3.7,4.85-4.22,7.66-.52,2.86,2.34,2.21,4.31,2.23Z"/>
  <path class="cls-3" d="M790.79,378.6c-1.47-.06-2.98.15-4.44.39-7.26,1.21-12.28,6.02-17.51,11.76-.72-3.22-.48-5.36-.08-7.49.19-1,.44-2.21-.53-2.75-2.78-1.52-5.85-.9-8.76-.55-2.1.26-2.56,2.19-2.93,4.12-3.6,18.76-7.93,37.36-12.77,55.84-.37,1.43-1.12,3.43.49,4.06,3.29,1.29,6.91.81,10.33.4,2.8-.34,2.28-3.2,2.83-5.19,2.97-10.72,4.53-21.79,8.54-32.25,3.83-9.99,13.68-17.67,23.24-15.03,2.44.67,3.37-.55,3.91-2.56.48-1.76.8-3.59,1.47-5.28,1.5-3.82-.2-5.33-3.78-5.48Z"/>
  <path class="cls-3" d="M824.68,356.55c-3.98.06-7.97.02-11.96.02v.04c-4.32,0-8.64.09-12.95-.03-3.63-.1-3.27,2.43-3.44,4.73-.17,2.41.1,4.25,3.26,4.27,3.64.03,7.27.59,10.91.6,4.31.02,3.71,1.78,2.05,4.51-3.43,5.68-6.65,11.48-10.06,17.17-.96,1.61-1.68,2.98.45,4.11,2.86,1.51,7.82-.01,9.46-2.96,3.38-6.09,6.8-12.14,10.3-18.15,1.93-3.32,4.36-6.54,4.9-10.72.37-2.82-.33-3.63-2.93-3.59Z"/>
  <path class="cls-3" d="M407.51,113.92v.27c.04-.09.04-.18,0-.27Z"/>
  <path class="cls-2" d="M400.76,133.08l-14.27-10.13c4.5,3.21,9.01,6.39,13.47,9.66.26.19.53.34.8.47Z"/>
  <path class="cls-3" d="M400.76,133.08c-.27-.13-.54-.28-.8-.47-4.45-3.26-8.97-6.45-13.47-9.66l-.36-.25h0c-5.11-3.65-10.2-7.34-15.13-11.22-3.83-3.01-6.32-2.73-9.83.05-11.82,9.4-23.78,18.61-35.74,27.82-15.89,12.23-31.87,24.33-47.71,36.62-3.08,2.39-7.66,3.5-7.44,9.02.31,7.82.08,15.65.13,23.48,0,1.28-.49,2.88.82,3.69,1.66,1.02,2.76-.55,3.89-1.39,10.77-8.05,21.48-16.18,32.27-24.2,17.73-13.17,35.5-26.28,52.66-40.19,7.18-5.82,7.49-5.58,15.1-.09,12.78,9.22,25.59,18.45,38.94,26.86,1.98,1.25,3.56,1.75,5.37.25,6.08-5.06,12.83-9.33,18.1-15.35-.7-.35-1.4-.71-2.09-1.09-.22-.12-.44-.25-.66-.37-.47-.26-.93-.52-1.39-.79-.25-.15-.5-.3-.75-.44-.43-.26-.86-.52-1.29-.79-.24-.15-.48-.3-.72-.46-.44-.28-.88-.56-1.31-.85-.21-.14-.43-.28-.64-.42-.5-.33-.99-.67-1.48-1.01-.14-.1-.29-.2-.43-.3-2-1.4-3.96-2.86-5.91-4.34"/>
  <path class="cls-3" d="M437.58,158.06c-.7-.35-1.4-.71-2.09-1.09.69.37,1.38.74,2.09,1.09Z"/>
  <path class="cls-3" d="M428.73,152.86c-.5-.33-.99-.67-1.48-1.01.49.34.98.68,1.48,1.01Z"/>
  <path class="cls-3" d="M430.68,154.13c-.44-.28-.88-.56-1.31-.85.44.29.87.57,1.31.85Z"/>
  <path class="cls-3" d="M434.83,156.6c-.47-.26-.93-.52-1.39-.79.46.27.92.53,1.39.79Z"/>
  <path class="cls-3" d="M432.69,155.37c-.43-.26-.86-.52-1.29-.79.43.27.86.53,1.29.79Z"/>
  <path class="cls-3" d="M386.49,122.95c-.12-.08-.24-.17-.35-.25h0s.36.25.36.25Z"/>
  <g>
    <path class="cls-1" d="M455.95,160.65c-10.22,8.54-20.37,17.16-30.6,25.69-6.05,5.04-6.1,4.98-12.81.69-1.1-.7-2.11-2.24-3.42-1.65-1.69.76-.88,2.65-.88,4.07.05,43.31.2,86.61.07,129.92-.01,4.72,1.67,5.49,5.78,5.41,13.65-.24,27.31-.37,40.96-.07,4.52.1,5.61-1.2,5.58-5.57-.24-42.81-.28-85.62-.36-128.42-.02-10.76,0-21.52,0-32.26-2.51-.26-3.24,1.3-4.31,2.2Z"/>
    <path class="cls-1" d="M274.42,324.98c14.32-.15,28.64-.25,42.95.05,4.56.1,5.52-1.42,5.49-5.69-.2-33.31-.17-66.61-.2-99.92,0-8.98,0-17.95,0-27.95-1.57.81-2.16,1.03-2.65,1.39-15.84,11.89-31.65,23.82-47.54,35.64-2.17,1.62-2.64,3.55-2.63,6.03.04,28.64.07,57.29-.06,85.93-.02,3.55,1.19,4.55,4.63,4.52Z"/>
    <path class="cls-1" d="M392.31,319.98c-.16-11.32-.06-22.65-.06-33.98-.04,0-.08,0-.11,0,0-11.66-.04-23.32.03-34.98.01-2.45-.2-4.17-3.36-4.15-14.99.1-29.97.07-44.96.04-2.32,0-3.23.88-3.22,3.27.07,23.49.1,46.97.03,70.46,0,3.1,1.21,3.98,4.16,3.96,14.32-.11,28.64-.13,42.96.02,3.5.04,4.59-1.21,4.54-4.63Z"/>
    <path class="cls-1" d="M196.21,445.68c8.55.19,15.41-3.38,21.22-9.37.77-.8,1.36-2.34,2.68-1.77,1.66.73.61,2.35.44,3.5-.94,6.43-.99,6.5,5.89,6.35,2.04-.04,4.63,1.22,5.47-2.47,4.19-18.48,8.55-36.93,12.94-55.36.63-2.67-.02-3.97-2.79-4.58-7.98-1.76-15.94-3.36-24.18-3.05-23.71.88-42.3,19.74-42.3,43.06,0,1.5-.12,3,.02,4.49,1.09,12.13,8.45,18.93,20.61,19.19ZM188.9,420.18c.85-18.12,12.56-29.98,29.37-29.74,13.1.18,13.14.27,9.7,13.07-2.57,9.56-5.97,18.66-13.45,25.64-2.22,2.07-4.69,3.66-7.59,4.61-11.08,3.63-18.56-1.99-18.02-13.57Z"/>
    <path class="cls-1" d="M330.76,421.51c12.53-1.56,24.46-4.83,35.01-12.11,6.24-4.3,9.89-9.85,8.31-17.77-1.27-6.35-6.71-10.78-14.79-12.22-22.59-4.02-44.01,12.68-47.11,36.72-2.38,18.47,8.42,30.45,28.65,29.72,6.92.13,14.37-3.3,21.3-8.2,4.88-3.45-.26-5.63-1.16-8.23-1.05-3.02-2.9-1.63-4.65-.36-5.72,4.18-12.08,6.2-19.22,5.44-4.25-.45-7.56-2.42-9.7-6.16-2.53-4.45-1.67-6.21,3.36-6.84ZM327.2,409.83c2.19-12.41,15.47-21.87,27.76-19.67,3.55.64,6.31,2.18,6.52,6.02-.03,2.69-1.32,4.44-3.14,5.71-8.85,6.15-19.24,8.03-29.44,10.4-2,.47-2-.84-1.71-2.45Z"/>
    <path class="cls-1" d="M130.93,445.8c9.59.55,17.85-3,25.6-8.22,4.82-3.24.3-5.78-.75-8.34-1.28-3.09-3.42-2.09-5.58-.42-5.93,4.6-12.61,6.59-20.12,5.21-3.44-.63-6.25-2.2-8.03-5.32-2.87-5.05-2.12-6.53,3.46-7.39,12.92-1.97,25.45-5.1,36.18-13.12,5.37-4.02,8.12-9.43,6.63-16.09-1.53-6.8-6.35-10.58-13.1-12.12-22.96-5.24-44.69,11.4-48.22,36.58-2.03,14.53,6.68,29.43,23.93,29.25ZM121.97,409.48c2.44-12.67,15.35-21.49,27.97-19.08,3.22.61,5.43,2.31,5.89,5.27.08,3.13-1.47,4.92-3.39,6.27-8.67,6.12-18.98,7.67-28.97,10.06-2.25.54-1.78-1.15-1.52-2.51Z"/>
    <path class="cls-1" d="M250.77,441.99c6.65,2.44,13.45,3.67,20.49,3.85,6.22.2,12.27-.46,17.95-3.32,7.94-4.01,11.9-10.5,11.71-19.29-.18-8.35-6.11-12.04-12.9-14.73-4.32-1.72-8.77-3.15-13.06-4.94-2.43-1.02-4.12-2.9-3.83-5.83.28-2.89,1.64-5.1,4.57-5.88,2.24-.6,4.53-1.17,6.82-1.35,6.37-.5,12.68.2,18.69,2.35,2.63.94,4.05.69,4.79-2.14.37-1.44.98-2.84,1.67-4.16,1.09-2.11.62-3.48-1.66-4.19-12.38-3.82-24.88-5.37-37.04.28-7.29,3.39-11.51,9.45-11.22,17.92.27,8.2,5.46,12.44,12.43,15.12,4.18,1.61,8.45,2.99,12.62,4.62,2.82,1.1,4.86,3.06,4.71,6.35-.14,3.11-1.99,5.24-4.66,6.59-2.1,1.06-4.41,1.39-6.77,1.52-7.46.43-14.62-.83-21.36-4.01-2.65-1.25-4.01-.66-4.8,2.04-.37,1.27-.85,2.53-1.47,3.7-1.54,2.87-.86,4.33,2.34,5.5Z"/>
    <path class="cls-1" d="M43.66,444.79c8.48-.17,16.96-.06,25.45-.06,0,.04,0,.08,0,.12,6.99,0,13.97-.02,20.96,0,7.47.03,7.28,0,9.07-7.25.91-3.71-.14-4.74-3.76-4.69-10.81.15-21.62.11-32.43.08-6.91-.02-6.96-.08-5.35-6.91,4.77-20.22,9.66-40.41,14.35-60.65,1.6-6.91,1.38-6.74-5.94-7.18-4.23-.26-6.03.93-7.04,5.33-5.92,25.77-12.17,51.46-18.45,77.14-.77,3.17-.15,4.14,3.15,4.08Z"/>
    <path class="cls-1" d="M368.69,215.15q.09,8.99,9.21,8.92,9.85-.08,9.9-9.47.04-9.21-9.18-9.24-10.03-.04-9.93,9.79Z"/>
    <path class="cls-1" d="M363.06,190.28q-.13-9.46-9.43-9.42-9.58.05-9.61,9.42-.04,9.61,9.34,9.66,9.85.05,9.71-9.66Z"/>
    <path class="cls-1" d="M377.88,199.93c9.96-.07,9.96-.13,10-10q.03-9.2-9.24-9.15c-9.94.05-10,.05-9.93,9.9.08,10.35-1.74,9.32,9.17,9.25Z"/>
    <path class="cls-1" d="M353.19,224.02q9.84.06,9.87-9.4c.03-9.26.03-9.38-9.48-9.2-11.28.21-9.27-1.56-9.48,9.42-.17,9.13-.06,9.13,9.08,9.19Z"/>
    <path class="cls-1" d="M410.77,140.05c1.95,1.48,13.79,9.94,15.79,11.34.14.1.29.2.43.3.49.34.98.68,1.48,1.01.21.14.43.28.64.42.44.29.87.57,1.31.85.24.15.48.31.72.46.43.27.86.53,1.29.79.25.15.5.3.75.44.46.27.92.53,1.39.79.22.12.44.25.66.37.69.37,1.38.74,2.09,1.09,6.51-5.42,13.03-10.84,19.52-16.28,1.54-1.29,2.9-2.61,2.89-4.94-.07-11.98-.07-23.97,0-35.95.02-3.07-1.37-4.03-4.26-4.01-14.81.1-29.62.13-44.43.09-2.77,0-3.86,1.04-3.79,3.84v4.61l-.09,6.49c-.01.61-.03,1.21-.03,1.82,0,0,0,0,0,.01v.72s-1.05,21.9.03,22.94"/>
  </g>
</svg>